<svg xmlns="http://www.w3.org/2000/svg" width="287.5" height="201.592" viewBox="0 0 287.5 201.592">
  <g id="Group_38" data-name="Group 38" transform="translate(0 0)">
    <path id="Path_220" data-name="Path 220" d="M447.785,237.4H262.618a4.773,4.773,0,0,1-4.768-4.768V118.458a3.5,3.5,0,0,1,3.493-3.493H449a3.557,3.557,0,0,1,3.553,3.553V232.635A4.773,4.773,0,0,1,447.785,237.4Z" transform="translate(-212.962 -110.976)" fill="#f2f2f2"/>
    <path id="Path_221" data-name="Path 221" d="M455.848,252.251H283.277a4.454,4.454,0,0,1-4.588-4.3V148.527a3.3,3.3,0,0,1,3.4-3.186h174.89a3.356,3.356,0,0,1,3.456,3.239v99.375A4.454,4.454,0,0,1,455.848,252.251Z" transform="translate(-227.78 -132.575)" fill="#fff"/>
    <path id="Path_222" data-name="Path 222" d="M452.321,108.369h-194.7v-2.427a4.789,4.789,0,0,1,4.785-4.782H447.536a4.789,4.789,0,0,1,4.785,4.782Z" transform="translate(-212.797 -101.159)" fill="#ccc"/>
    <circle id="Ellipse_34" data-name="Ellipse 34" cx="1.238" cy="1.238" r="1.238" transform="translate(52.279 2.374)" fill="#fff"/>
    <circle id="Ellipse_35" data-name="Ellipse 35" cx="1.238" cy="1.238" r="1.238" transform="translate(56.977 2.374)" fill="#fff"/>
    <circle id="Ellipse_36" data-name="Ellipse 36" cx="1.238" cy="1.238" r="1.238" transform="translate(61.675 2.374)" fill="#fff"/>
    <path id="Path_223" data-name="Path 223" d="M484.525,277.2H350.791a5.062,5.062,0,0,1-5.057-5.057V207.668a3.786,3.786,0,0,1,3.782-3.782H485.74a3.847,3.847,0,0,1,3.842,3.842v64.419A5.062,5.062,0,0,1,484.525,277.2Zm-135.01-72.74a3.207,3.207,0,0,0-3.2,3.2v64.479a4.484,4.484,0,0,0,4.479,4.479H484.525A4.484,4.484,0,0,0,489,272.148V207.729a3.268,3.268,0,0,0-3.264-3.264Z" transform="translate(-275.453 -174.204)" fill="#ccc"/>
    <path id="Path_224" data-name="Path 224" d="M367.857,284.729H492.346a4.623,4.623,0,0,0,4.623-4.623V226.2a4.623,4.623,0,0,0-4.623-4.623H367.857a4.623,4.623,0,0,0-4.623,4.623v53.9A4.623,4.623,0,0,0,367.857,284.729Z" transform="translate(-287.896 -186.786)" fill="#f2f2f2"/>
    <circle id="Ellipse_37" data-name="Ellipse 37" cx="2.601" cy="2.601" r="2.601" transform="translate(91.495 45.276)" fill="#ccc"/>
    <circle id="Ellipse_38" data-name="Ellipse 38" cx="2.601" cy="2.601" r="2.601" transform="translate(91.495 55.1)" fill="#ccc"/>
    <circle id="Ellipse_39" data-name="Ellipse 39" cx="2.601" cy="2.601" r="2.601" transform="translate(91.495 64.924)" fill="#ccc"/>
    <circle id="Ellipse_40" data-name="Ellipse 40" cx="2.601" cy="2.601" r="2.601" transform="translate(91.495 74.748)" fill="#ccc"/>
    <path id="Path_225" data-name="Path 225" d="M557.971,266.433H472.443a.289.289,0,0,1,0-.578h85.528a.289.289,0,1,1,0,.578Z" transform="translate(-365.344 -218.267)" fill="#ccc"/>
    <path id="Path_226" data-name="Path 226" d="M557.971,300.433H472.443a.289.289,0,1,1,0-.578h85.528a.289.289,0,1,1,0,.578Z" transform="translate(-365.344 -242.443)" fill="#ccc"/>
    <path id="Path_227" data-name="Path 227" d="M557.971,334.433H472.443a.289.289,0,1,1,0-.578h85.528a.289.289,0,1,1,0,.578Z" transform="translate(-365.344 -266.619)" fill="#ccc"/>
    <path id="Path_228" data-name="Path 228" d="M557.971,368.433H472.443a.289.289,0,1,1,0-.578h85.528a.289.289,0,1,1,0,.578Z" transform="translate(-365.344 -290.795)" fill="#ccc"/>
    <path id="Path_229" data-name="Path 229" d="M504.978,377.546H496.6a1.446,1.446,0,0,1-1.445-1.445v-7.8a1.446,1.446,0,0,1,1.445-1.445h8.379a1.446,1.446,0,0,1,1.445,1.445v7.8A1.446,1.446,0,0,1,504.978,377.546Z" transform="translate(-381.699 -290.084)" fill="#a8abbb"/>
    <path id="Path_230" data-name="Path 230" d="M569.978,353.37H561.6a1.446,1.446,0,0,1-1.445-1.445V334.3a1.446,1.446,0,0,1,1.445-1.445h8.379a1.446,1.446,0,0,1,1.445,1.445v17.626A1.446,1.446,0,0,1,569.978,353.37Z" transform="translate(-427.917 -265.908)" fill="#a8abbb"/>
    <path id="Path_231" data-name="Path 231" d="M635.978,329.194H627.6a1.446,1.446,0,0,1-1.445-1.445V300.3a1.446,1.446,0,0,1,1.445-1.445h8.379a1.446,1.446,0,0,1,1.445,1.445v27.45A1.446,1.446,0,0,1,635.978,329.194Z" transform="translate(-474.847 -241.732)" fill="#a8abbb"/>
    <path id="Path_232" data-name="Path 232" d="M703.978,305.729H695.6a1.446,1.446,0,0,1-1.445-1.445V267.3a1.446,1.446,0,0,1,1.445-1.445h8.379a1.446,1.446,0,0,1,1.445,1.445v36.985A1.446,1.446,0,0,1,703.978,305.729Z" transform="translate(-523.199 -218.267)" fill="#a8abbb"/>
    <path id="Path_233" data-name="Path 233" d="M557.971,402.433H472.443a.289.289,0,1,1,0-.578h85.528a.289.289,0,1,1,0,.578Z" transform="translate(-365.344 -314.971)" fill="#3f3d56"/>
    <path id="Path_234" data-name="Path 234" d="M897.985,577.509a2.906,2.906,0,0,1,4.427-.5l9.175-4.735-.571,5.335-8.625,3.679a2.921,2.921,0,0,1-4.406-3.775Z" transform="translate(-667.782 -436.145)" fill="#ffb8b8"/>
    <path id="Path_235" data-name="Path 235" d="M923.5,531.835a1.3,1.3,0,0,1-.44-.639l-.73-2.358a1.3,1.3,0,0,1,.458-1.422l7.437-5.617,8.054-14.942A4.189,4.189,0,0,1,944.9,512l-4.582,9.671a13.4,13.4,0,0,1-6.78,6.558L924.823,532a1.3,1.3,0,0,1-1.06-.011,1.283,1.283,0,0,1-.259-.158Z" transform="translate(-685.406 -388.482)" fill="#3f3d56"/>
    <circle id="Ellipse_41" data-name="Ellipse 41" cx="7.097" cy="7.097" r="7.097" transform="translate(252.6 97.946)" fill="#ffb8b8"/>
    <path id="Path_236" data-name="Path 236" d="M875.949,652.112h-3.542l-1.685-13.664h5.228Z" transform="translate(-619.131 -453.972)" fill="#ffb8b8"/>
    <path id="Path_237" data-name="Path 237" d="M857.21,682.233h6.832v4.3H852.908A4.3,4.3,0,0,1,857.21,682.233Z" transform="translate(-606.465 -485.106)" fill="#2f2e41"/>
    <path id="Path_238" data-name="Path 238" d="M915.949,652.113h-3.542l-1.685-13.664h5.229Z" transform="translate(-647.574 -453.973)" fill="#ffb8b8"/>
    <path id="Path_239" data-name="Path 239" d="M897.21,682.234h6.832v4.3H892.908A4.3,4.3,0,0,1,897.21,682.234Z" transform="translate(-634.907 -485.106)" fill="#2f2e41"/>
    <path id="Path_240" data-name="Path 240" d="M978.156,656.806H974a1.3,1.3,0,0,1-1.255-.962l-5.975-22.162a.144.144,0,0,0-.284.046l1.207,21.018a1.3,1.3,0,0,1-1.406,1.37l-4.666-.389a1.3,1.3,0,0,1-1.184-1.145l-4.251-44.135,1.644.987,15.409-2.616,6.2,46.516a1.3,1.3,0,0,1-1.289,1.472Z" transform="translate(-709.521 -462.133)" fill="#2f2e41"/>
    <path id="Path_241" data-name="Path 241" d="M960.6,536.131a9.517,9.517,0,0,1-4.823-1.357,1.294,1.294,0,0,1-.617-1.326c.542-3.319,3.376-20.344,5.955-29.625,1.05-3.78,3.372-5.816,6.9-6.051a9.82,9.82,0,0,1,10.23,9.015c.843,9.376-2.581,22.7-4.093,27.989a1.3,1.3,0,0,1-2.048.666l-3.081-2.4a1.021,1.021,0,0,0-1.3.054A10.581,10.581,0,0,1,960.6,536.131Z" transform="translate(-708.773 -383.158)" fill="#3f3d56"/>
    <path id="Path_242" data-name="Path 242" d="M903.941,443.738l2.6,10.98-3.757,9.246,2.6-8.957Z" transform="translate(-641.929 -315.522)" opacity="0.2"/>
    <path id="Path_243" data-name="Path 243" d="M988.406,447.212a4.779,4.779,0,0,0,1.846-.334c.258-.1.526-.181.784-.281a6.362,6.362,0,0,0,3.832-5.746,8.275,8.275,0,0,0-3.087-6.371,11.947,11.947,0,0,0-6.742-2.548c-2.622-.2-5.575.465-7.04,2.649a2.3,2.3,0,0,0-.432,1.988,1.273,1.273,0,0,0,.359.551c.654.582,1.307.144,1.974.106a2.182,2.182,0,0,1,2.036,1.559,4.7,4.7,0,0,1-.073,2.713,6.774,6.774,0,0,0-.342,1.65,1.658,1.658,0,0,0,.687,1.461,1.893,1.893,0,0,0,1.9-.2,13.181,13.181,0,0,1,1.688-1.081,1.493,1.493,0,0,1,1.812.366,2.005,2.005,0,0,1,.229.661c.323,1.472.249,1.385.572,2.858Z" transform="translate(-724.66 -336.333)" fill="#2f2e41"/>
    <path id="Path_244" data-name="Path 244" d="M862.832,619.674,818.393,604.2a3.05,3.05,0,0,1-1.875-3.879l11.548-33.159a2.235,2.235,0,0,1,2.842-1.374l45.94,16a2.273,2.273,0,0,1,1.4,2.891L866.711,617.8A3.05,3.05,0,0,1,862.832,619.674Z" transform="translate(-610.086 -431.447)" fill="#e6e6e6"/>
    <path id="Path_245" data-name="Path 245" d="M831.668,612.405l38.858,13.533a2.955,2.955,0,0,0,3.762-1.818l9.325-26.776a2.955,2.955,0,0,0-1.818-3.762L842.936,580.05a2.954,2.954,0,0,0-3.762,1.818l-9.325,26.776A2.954,2.954,0,0,0,831.668,612.405Z" transform="translate(-619.568 -441.56)" fill="#fff"/>
    <path id="Path_246" data-name="Path 246" d="M864.9,618.949l-1.924-.67a.417.417,0,0,1-.257-.531l.67-1.924a.417.417,0,0,1,.531-.257l1.924.67a.417.417,0,0,1,.257.531l-.67,1.924A.417.417,0,0,1,864.9,618.949Z" transform="translate(-643.038 -466.916)" fill="#a8abbb"/>
    <path id="Path_247" data-name="Path 247" d="M858.886,636.205l-1.924-.67A.417.417,0,0,1,856.7,635l.67-1.924a.417.417,0,0,1,.531-.257l1.924.67a.417.417,0,0,1,.257.531l-.67,1.924a.417.417,0,0,1-.531.257Z" transform="translate(-638.765 -479.186)" fill="#3f3d56"/>
    <path id="Path_248" data-name="Path 248" d="M852.877,653.461l-1.924-.67a.417.417,0,0,1-.257-.531l.67-1.924a.417.417,0,0,1,.531-.257l1.924.67a.417.417,0,0,1,.257.531l-.67,1.924A.417.417,0,0,1,852.877,653.461Z" transform="translate(-634.492 -491.456)" fill="#ccc"/>
    <path id="Path_249" data-name="Path 249" d="M891.567,629.24l-9.272-3.229a.417.417,0,1,1,.274-.787l9.272,3.229a.417.417,0,1,1-.274.787Z" transform="translate(-656.778 -473.781)" fill="#ccc"/>
    <path id="Path_250" data-name="Path 250" d="M885.558,646.5l-9.272-3.229a.417.417,0,0,1,.274-.787l9.272,3.229a.417.417,0,1,1-.274.787Z" transform="translate(-652.506 -486.051)" fill="#ccc"/>
    <path id="Path_251" data-name="Path 251" d="M879.548,663.752l-9.272-3.229a.417.417,0,1,1,.274-.787l9.272,3.229a.417.417,0,1,1-.274.787Z" transform="translate(-648.232 -498.321)" fill="#ccc"/>
    <path id="Path_252" data-name="Path 252" d="M968.187,654.449c.068-.162.131-.327.19-.495A8.737,8.737,0,0,0,963,642.83l-3.048,8.751Z" transform="translate(-712.195 -486.317)" fill="#a8abbb"/>
    <path id="Path_253" data-name="Path 253" d="M935.805,652.221l3.048-8.751a8.737,8.737,0,1,0,5.188,11.619Z" transform="translate(-688.935 -486.425)" fill="#3f3d56"/>
    <path id="Path_254" data-name="Path 254" d="M994.621,600.71a2.906,2.906,0,0,1,3.172-3.128l4.3-9.388,2.843,4.55-4.517,8.218a2.921,2.921,0,0,1-5.8-.251Z" transform="translate(-736.841 -447.468)" fill="#ffb8b8"/>
    <path id="Path_255" data-name="Path 255" d="M1011.076,538.9a1.3,1.3,0,0,1-.741-.231l-2.029-1.4a1.3,1.3,0,0,1-.517-1.4l2.385-9.009-2.883-16.728a4.189,4.189,0,1,1,8.377-.041l2.363,10.438a13.4,13.4,0,0,1-1.287,9.344l-4.524,8.353a1.3,1.3,0,0,1-.841.645A1.284,1.284,0,0,1,1011.076,538.9Z" transform="translate(-745.857 -388.964)" fill="#3f3d56"/>
    <path id="Path_256" data-name="Path 256" d="M960.688,797.419h-54.9a.289.289,0,0,1,0-.578h54.9a.289.289,0,0,1,0,.578Z" transform="translate(-673.477 -595.828)" fill="#ccc"/>
    <path id="Path_257" data-name="Path 257" d="M490.54,651.615h3.542l1.685-13.663h-5.228Z" transform="translate(-348.8 -453.619)" fill="#a0616a"/>
    <path id="Path_258" data-name="Path 258" d="M589.914,782.4h6.977a4.446,4.446,0,0,1,4.446,4.446v.144H589.914Z" transform="translate(-449.078 -585.556)" fill="#2f2e41"/>
    <path id="Path_259" data-name="Path 259" d="M441.54,651.615h3.542l1.685-13.663h-5.228Z" transform="translate(-313.959 -453.619)" fill="#a0616a"/>
    <path id="Path_260" data-name="Path 260" d="M540.914,782.4h6.977a4.446,4.446,0,0,1,4.446,4.446v.144H540.914Z" transform="translate(-414.237 -585.556)" fill="#2f2e41"/>
    <circle id="Ellipse_42" data-name="Ellipse 42" cx="7.097" cy="7.097" r="7.097" transform="translate(135.35 89.207)" fill="#a0616a"/>
    <path id="Path_261" data-name="Path 261" d="M559.319,629.136h-6.574a1.3,1.3,0,0,1-1.3-1.316l.382-31.215a.433.433,0,0,0-.864-.058l-3.826,31.446a1.3,1.3,0,0,1-1.291,1.143H539.21a1.3,1.3,0,0,1-1.3-1.4l4.383-56.077.119-.013,20.986-2.266L560.618,627.9A1.3,1.3,0,0,1,559.319,629.136Z" transform="translate(-412.101 -434.089)" fill="#2f2e41"/>
    <path id="Path_262" data-name="Path 262" d="M550.637,503.026a1.3,1.3,0,0,1-1.3-1.259c-.115-3.546-.311-15.815,1.971-24.822a11.825,11.825,0,0,1,10.92-8.911h0a11.9,11.9,0,0,1,11.719,7.519c3.836,9.738,7.46,21.742,2.942,23.625-5.922,2.467-21.533,3.567-26.177,3.845Z" transform="translate(-420.185 -362.015)" fill="#3f3d56"/>
    <path id="Path_263" data-name="Path 263" d="M639.274,397a3.042,3.042,0,0,0,.36.316l-.745,14.31-3.1,1.586,1.783,4.99,5.759-2.275a2.312,2.312,0,0,0,1.452-2.364l-1.509-16.233a3.033,3.033,0,1,0-4-.33Z" transform="translate(-481.699 -307.867)" fill="#a0616a"/>
    <path id="Path_264" data-name="Path 264" d="M622.041,459.957l2.18,6.195a1.3,1.3,0,0,1-.979,1.708l-6.428,1.245a3.611,3.611,0,0,1-2.377-6.82l5.771-3.046a1.3,1.3,0,0,1,1.833.719Z" transform="translate(-464.792 -355.667)" fill="#3f3d56"/>
    <path id="Path_265" data-name="Path 265" d="M527.876,397a3.044,3.044,0,0,1-.36.316l.745,14.31,3.1,1.586-1.783,4.99-5.759-2.275a2.312,2.312,0,0,1-1.452-2.364l1.509-16.233a3.033,3.033,0,1,1,4-.33Z" transform="translate(-401.041 -307.867)" fill="#a0616a"/>
    <path id="Path_266" data-name="Path 266" d="M537.8,459.178a1.3,1.3,0,0,1,1.081.061l5.771,3.046a3.611,3.611,0,1,1-2.377,6.82l-6.428-1.245a1.3,1.3,0,0,1-.979-1.708l2.18-6.195A1.3,1.3,0,0,1,537.8,459.178Z" transform="translate(-409.882 -355.667)" fill="#3f3d56"/>
    <path id="Path_267" data-name="Path 267" d="M574.878,404.385A4.665,4.665,0,0,1,577.49,400c2.157-1.114,3.512-3.489,2.919-5.658-.76-2.776-4.539-4.577-7.6-3.622a14.034,14.034,0,0,0-2.387,1.109l-2,1.072a20.736,20.736,0,0,0-2.466,1.456,8.181,8.181,0,0,0-3.256,7.666,10.938,10.938,0,0,0,4.773,7.183,8.073,8.073,0,0,0,3.271,1.454,4.345,4.345,0,0,0,3.45-.782c1.386-1.179,1.243-3.153.794-4.8A3.492,3.492,0,0,1,574.878,404.385Z" transform="translate(-429.676 -306.871)" fill="#2f2e41"/>
    <path id="Path_268" data-name="Path 268" d="M552.688,797.419h-54.9a.289.289,0,0,1,0-.578h54.9a.289.289,0,0,1,0,.578Z" transform="translate(-383.367 -595.828)" fill="#ccc"/>
    <path id="Path_269" data-name="Path 269" d="M222.2,519.537l-45.3,18.584a3.174,3.174,0,0,1-4.136-1.73l-13.867-33.8a2.325,2.325,0,0,1,1.267-3.03L207,480.347a2.365,2.365,0,0,1,3.083,1.289L223.931,515.4A3.174,3.174,0,0,1,222.2,519.537Z" transform="translate(-142.479 -370.657)" fill="#e6e6e6"/>
    <path id="Path_270" data-name="Path 270" d="M189.317,544.816l39.612-16.251a3.074,3.074,0,0,0,1.677-4.011l-11.2-27.294a3.074,3.074,0,0,0-4.011-1.677l-39.612,16.251a3.074,3.074,0,0,0-1.677,4.011l11.2,27.295a3.074,3.074,0,0,0,4.011,1.677Z" transform="translate(-153.254 -381.452)" fill="#fff"/>
    <rect id="Rectangle_174" data-name="Rectangle 174" width="0.629" height="0.105" transform="translate(65.354 123.49) rotate(-22.306)" fill="#e6e6e6"/>
    <path id="Path_271" data-name="Path 271" d="M234.9,530.312l-1.176.483-.04-.1,1.176-.483Zm-2.353.965-1.176.483-.04-.1,1.176-.483Zm-2.353.965-1.177.483-.04-.1,1.176-.483Zm-2.353.965-1.176.483-.04-.1,1.176-.483Zm-2.353.965-1.176.483-.04-.1,1.177-.483Zm-2.353.965-1.177.483-.04-.1,1.176-.483Zm-2.353.965-1.176.483-.04-.1,1.176-.483Zm-2.353.965-1.176.483-.04-.1,1.177-.483Zm-2.353.965-1.177.483-.04-.1,1.176-.483Zm-2.353.965-1.176.483-.04-.1,1.176-.483Zm-2.353.965-1.176.483-.04-.1,1.176-.483Zm-2.353.965-1.176.483-.04-.1,1.177-.483Zm-2.353.965-1.176.483-.04-.1,1.176-.483Zm-2.353.965-1.177.483-.04-.1,1.177-.483Zm-2.353.965-1.177.483-.04-.1,1.176-.483Zm-2.353.965-1.177.483-.04-.1,1.177-.483Z" transform="translate(-170.679 -406.242)" fill="#e6e6e6"/>
    <rect id="Rectangle_175" data-name="Rectangle 175" width="0.629" height="0.105" transform="translate(25.947 139.657) rotate(-22.306)" fill="#e6e6e6"/>
    <rect id="Rectangle_176" data-name="Rectangle 176" width="0.629" height="0.105" transform="translate(49.936 140.361) rotate(-22.306)" fill="#e6e6e6"/>
    <path id="Path_272" data-name="Path 272" d="M228.566,588.676l-1.159.475-.04-.1,1.159-.476Zm-2.318.951-1.159.476-.04-.1,1.159-.475Zm-2.318.951-1.159.476-.04-.1,1.159-.475Zm-2.318.951-1.159.475-.04-.1,1.159-.476Zm-2.318.951-1.159.475-.04-.1,1.159-.476Zm-2.318.951-1.159.476-.04-.1,1.159-.476Zm-2.318.951-1.159.476-.04-.1,1.159-.475Zm-2.318.951-1.159.475-.04-.1,1.159-.476Z" transform="translate(-179.749 -447.742)" fill="#e6e6e6"/>
    <rect id="Rectangle_177" data-name="Rectangle 177" width="0.629" height="0.105" transform="translate(29.65 148.684) rotate(-22.306)" fill="#e6e6e6"/>
    <rect id="Rectangle_178" data-name="Rectangle 178" width="0.629" height="0.105" transform="translate(40.332 149.291) rotate(-22.306)" fill="#e6e6e6"/>
    <path id="Path_273" data-name="Path 273" d="M223.322,619.628l-1.192.489-.04-.1,1.192-.489Zm-2.385.978-1.192.489-.04-.1,1.192-.489Zm-2.385.978-1.192.489-.04-.1,1.192-.489Z" transform="translate(-184.143 -469.751)" fill="#e6e6e6"/>
    <rect id="Rectangle_179" data-name="Rectangle 179" width="0.629" height="0.105" transform="translate(31.402 152.954) rotate(-22.306)" fill="#e6e6e6"/>
    <rect id="Rectangle_180" data-name="Rectangle 180" width="0.629" height="0.105" transform="translate(43.321 156.579) rotate(-22.306)" fill="#e6e6e6"/>
    <path id="Path_274" data-name="Path 274" d="M233.67,644.851l-1.192.489-.04-.1,1.193-.489Zm-2.385.978-1.192.489-.04-.1,1.192-.489Zm-2.385.978-1.192.489-.04-.1,1.192-.489Z" transform="translate(-191.501 -487.686)" fill="#e6e6e6"/>
    <rect id="Rectangle_181" data-name="Rectangle 181" width="0.629" height="0.105" transform="translate(34.392 160.243) rotate(-22.306)" fill="#e6e6e6"/>
    <path id="Path_275" data-name="Path 275" d="M233.132,566.46,266.7,552.688a3.317,3.317,0,0,0,1.808-4.323l-6.782-16.532-.066.029-8.238,19.7L247.313,549a.792.792,0,0,0-.7.044.844.844,0,0,0-.35.414l-4.317,10.322-4.467-1.867a.8.8,0,0,0-1.041.427C236.405,558.414,233.651,565.172,233.132,566.46Z" transform="translate(-195.387 -407.392)" fill="#a8abbb"/>
    <path id="Path_276" data-name="Path 276" d="M232.537,566.147l-.1-.041,3.454-8.26a.893.893,0,0,1,1.167-.479l4.379,1.831,4.293-10.265a.893.893,0,0,1,1.167-.479l6.021,2.518,8.28-19.8.1.04-8.321,19.9-6.118-2.558a.787.787,0,0,0-1.029.422L241.5,559.336l-4.476-1.872a.788.788,0,0,0-1.029.422Z" transform="translate(-194.895 -406.924)" fill="#3f3d56"/>
    <circle id="Ellipse_43" data-name="Ellipse 43" cx="0.734" cy="0.734" r="0.734" transform="translate(40.2 148.366)" fill="#3f3d56"/>
    <circle id="Ellipse_44" data-name="Ellipse 44" cx="0.734" cy="0.734" r="0.734" transform="translate(49.804 139.437)" fill="#3f3d56"/>
    <circle id="Ellipse_45" data-name="Ellipse 45" cx="0.734" cy="0.734" r="0.734" transform="translate(64.758 122.54)" fill="#3f3d56"/>
    <path id="Path_277" data-name="Path 277" d="M176.427,551.113a2.917,2.917,0,0,0,1.043-4.349l2.181-21.325h-4.714L173.2,546.261a2.933,2.933,0,0,0,3.223,4.852Z" transform="translate(-152.039 -402.845)" fill="#ffb8b8"/>
    <circle id="Ellipse_46" data-name="Ellipse 46" cx="6.669" cy="6.669" r="6.669" transform="translate(22.046 97.486)" fill="#ffb8b8"/>
    <path id="Path_278" data-name="Path 278" d="M191.164,513.617a1.219,1.219,0,0,1-1.175-.9,67.436,67.436,0,0,0-4.132-9.756,8.081,8.081,0,0,1,4.589-11.157h0a8.077,8.077,0,0,1,10.379,5.146,39.972,39.972,0,0,1,1.513,13.33,1.225,1.225,0,0,1-.96,1.131l-9.953,2.174A1.216,1.216,0,0,1,191.164,513.617Z" transform="translate(-161.193 -378.606)" fill="#ff6584"/>
    <path id="Path_279" data-name="Path 279" d="M137.081,654.828h3.329l1.584-12.84H137.08Z" transform="translate(-97.471 -456.489)" fill="#ffb8b8"/>
    <path id="Path_280" data-name="Path 280" d="M0,0H10.462V4.042H4.042A4.042,4.042,0,0,1,0,0H0Z" transform="translate(49.357 201.43) rotate(179.997)" fill="#2f2e41"/>
    <path id="Path_281" data-name="Path 281" d="M21.882,643.807l2.917,1.6,7.574-10.488-4.3-2.367Z" transform="translate(-15.559 -449.782)" fill="#ffb8b8"/>
    <path id="Path_282" data-name="Path 282" d="M0,0H10.462V4.042H4.042A4.042,4.042,0,0,1,0,0H0Z" transform="translate(13.377 201.429) rotate(-151.199)" fill="#2f2e41"/>
    <path id="Path_283" data-name="Path 283" d="M165.059,614.218a1.222,1.222,0,0,1-1.211-1.065l-4.163-32.08a.679.679,0,0,0-1.268-.241l-17.35,31.478a1.229,1.229,0,0,1-1.5.552l-3.782-1.441a1.222,1.222,0,0,1-.7-1.6L147.1,580.3a.941.941,0,0,0,.061-.234c1.628-12.6,5.77-19.007,7-20.67a.946.946,0,0,0,.135-.862l-.169-.508a1.221,1.221,0,0,1,.235-1.188c4.434-5.051,12.163-2.295,12.241-2.266l.039.014.024.033c8.666,11.885,5.462,50.488,4.732,58.106a1.219,1.219,0,0,1-1.122,1.1l-5.125.395C165.122,614.217,165.09,614.218,165.059,614.218Z" transform="translate(-125.605 -423.006)" fill="#2f2e41"/>
    <path id="Path_284" data-name="Path 284" d="M248.328,483.024a2.861,2.861,0,0,0-.065.445L236.6,490.2l-2.835-1.632-3.022,3.957,4.738,3.377a2.172,2.172,0,0,0,2.606-.064l12.027-9.489a2.85,2.85,0,1,0-1.785-3.324Z" transform="translate(-193.687 -371.123)" fill="#ffb8b8"/>
    <path id="Path_285" data-name="Path 285" d="M222.109,500.788l-3.77,4.886a1.222,1.222,0,0,1-1.847.1l-4.268-4.432a3.393,3.393,0,1,1,4.162-5.361l5.353,2.993a1.222,1.222,0,0,1,.371,1.813Z" transform="translate(-179.587 -381.394)" fill="#ff6584"/>
    <path id="Path_286" data-name="Path 286" d="M181.681,515.939l-6.073-1.1a1.222,1.222,0,0,1-.94-1.593l1.969-5.829a3.393,3.393,0,1,1,6.675,1.226l-.192,6.129a1.222,1.222,0,0,1-1.438,1.164Z" transform="translate(-153.77 -388.056)" fill="#ff6584"/>
    <path id="Path_287" data-name="Path 287" d="M146.472,436.069c1.714,1.173,3.965,2.379,5.715,1.13a3.186,3.186,0,0,0,1.046-3.672c-.838-2.4-3.141-3.452-5.344-4.261-2.863-1.052-5.98-1.888-8.936-1.135s-5.568,3.615-5.034,6.618c.429,2.415,2.707,4.424,2.384,6.856-.325,2.447-3.077,3.735-5.507,4.172s-5.148.578-6.894,2.323c-2.227,2.226-1.671,6.205.425,8.556s5.259,3.416,8.323,4.14c4.06.96,8.452,1.464,12.309-.129s6.857-5.88,5.74-9.9a13.811,13.811,0,0,0-2.658-4.53,12.625,12.625,0,0,1-2.572-4.572,4.753,4.753,0,0,1,.858-4.158,1.2,1.2,0,0,0,.161-1.408Z" transform="translate(-116.701 -333.448)" fill="#2f2e41"/>
    <path id="Path_288" data-name="Path 288" d="M157.688,797.419h-54.9a.289.289,0,0,1,0-.578h54.9a.289.289,0,0,1,0,.578Z" transform="translate(-102.5 -595.828)" fill="#ccc"/>
  </g>
</svg>
