<svg xmlns="http://www.w3.org/2000/svg" width="316.638" height="256.114" viewBox="0 0 316.638 256.114">
  <g id="그룹_31" data-name="그룹 31" transform="translate(0 0)">
    <circle id="타원_15" data-name="타원 15" cx="28.716" cy="28.716" r="28.716" transform="translate(52.634 48.883)" fill="#ff6584"/>
    <path id="패스_165" data-name="패스 165" d="M453.638,276.46v75.528A111.47,111.47,0,0,1,342.162,463.461H137V387.933a111.575,111.575,0,0,1,70.973-103.885,109.424,109.424,0,0,1,10.86-3.6c.072-.024.147-.044.219-.062q1.631-.446,3.283-.841c.062-.017.12-.031.181-.044a111.514,111.514,0,0,1,20.677-2.917c.824-.038,1.648-.068,2.479-.085.3-.01.6-.017.9-.017q.944-.021,1.9-.021Z" transform="translate(-137 -207.743)" fill="#3f3d56"/>
    <path id="패스_166" data-name="패스 166" d="M284.725,681c-81.411,0-147.439,21.953-147.715,49.069H432.441C432.163,702.953,366.137,681,284.725,681Z" transform="translate(-137.007 -473.954)" fill="#f2f2f2"/>
    <g id="그룹_25" data-name="그룹 25" transform="translate(93.008 229.025)" opacity="0.1">
      <ellipse id="타원_16" data-name="타원 16" cx="27.355" cy="7.599" rx="27.355" ry="7.599"/>
    </g>
    <g id="그룹_26" data-name="그룹 26" transform="translate(152.164 215.347)" opacity="0.1">
      <ellipse id="타원_17" data-name="타원 17" cx="27.355" cy="7.599" rx="27.355" ry="7.599"/>
    </g>
    <g id="그룹_27" data-name="그룹 27" transform="translate(95.869 229.548)" opacity="0.1">
      <ellipse id="타원_18" data-name="타원 18" cx="24.545" cy="6.93" rx="24.545" ry="6.93" transform="translate(0 0)"/>
    </g>
    <g id="그룹_28" data-name="그룹 28" transform="translate(154.777 216.265)" opacity="0.1">
      <ellipse id="타원_19" data-name="타원 19" cx="24.545" cy="6.642" rx="24.545" ry="6.642" transform="translate(0 0)"/>
    </g>
    <circle id="타원_20" data-name="타원 20" cx="2.31" cy="2.31" r="2.31" transform="translate(45.047 96.717)" fill="#f2f2f2"/>
    <ellipse id="타원_21" data-name="타원 21" cx="2.31" cy="2.599" rx="2.31" ry="2.599" transform="translate(250.646 190.276)" fill="#f2f2f2"/>
    <circle id="타원_22" data-name="타원 22" cx="2.31" cy="2.31" r="2.31" transform="translate(138.029 113.466)" fill="#f2f2f2"/>
    <circle id="타원_23" data-name="타원 23" cx="1.444" cy="1.444" r="1.444" transform="translate(257.576 100.182)" fill="#ff6584"/>
    <circle id="타원_24" data-name="타원 24" cx="1.444" cy="1.444" r="1.444" transform="translate(51.4 168.33)" fill="#ff6584"/>
    <path id="패스_167" data-name="패스 167" d="M91.368,580.123h-.623V579.5h-.122v.623H90v.122h.623v.623h.122v-.623h.623Z" transform="translate(-59.225 -381.345)" fill="#f2f2f2"/>
    <path id="패스_168" data-name="패스 168" d="M676.368,432.123h-.623V431.5h-.122v.623H675v.122h.623v.623h.122v-.623h.623Z" transform="translate(-444.19 -283.952)" fill="#f2f2f2"/>
    <path id="패스_169" data-name="패스 169" d="M827.368,402.123h-.623V401.5h-.122v.623H826v.122h.623v.623h.122v-.623h.623Z" transform="translate(-543.556 -264.21)" fill="#f2f2f2"/>
    <path id="패스_170" data-name="패스 170" d="M502.368,482.123h-.623V481.5h-.122v.623H501v.122h.623v.623h.122v-.623h.623Z" transform="translate(-329.687 -316.855)" fill="#f2f2f2"/>
    <path id="패스_171" data-name="패스 171" d="M783.368,492.123h-.623V491.5h-.122v.623H782v.122h.623v.623h.122v-.623h.623Z" transform="translate(-514.602 -323.436)" fill="#f2f2f2"/>
    <path id="패스_172" data-name="패스 172" d="M444.368,535.123h-.623V534.5h-.122v.623H443v.122h.623v.623h.122v-.623h.623Z" transform="translate(-291.52 -351.732)" fill="#f2f2f2"/>
    <path id="패스_173" data-name="패스 173" d="M572.368,537.123h-.623V536.5h-.122v.623H571v.122h.623v.623h.122v-.623h.623Z" transform="translate(-375.752 -353.048)" fill="#f2f2f2"/>
    <path id="패스_174" data-name="패스 174" d="M93.368,367.123h-.623V366.5h-.122v.623H92v.122h.623v.623h.122v-.623h.623Z" transform="translate(-60.541 -241.178)" fill="#f2f2f2"/>
    <rect id="사각형_126" data-name="사각형 126" width="0.983" height="19.854" transform="translate(231.493 78.882)" fill="#e6e6e6"/>
    <path id="패스_175" data-name="패스 175" d="M594.346,385.046,585.3,405.883l1.769,2.949-.59.983,4.128,2.162V410.8l1.573-.393,6.684-12.188Z" transform="translate(-385.164 -253.383)" fill="#e6e6e6"/>
    <path id="패스_176" data-name="패스 176" d="M722.759,532.407s-6.684,10.419.786,11.991,1.376-11.008,1.376-11.008Z" transform="translate(-520.653 -376.171)" fill="#e6e6e6"/>
    <path id="패스_177" data-name="패스 177" d="M746.385,513.474l-2.359,7.667-.983,9.829-1.769,3.538,1.966,15.923,3.145,3.145,1.376,15.726v7.077l3.735,6.487-4.81,6.827a2.175,2.175,0,0,0,1.706,3.43,8.988,8.988,0,0,0,4.283-1.214c5.7-2.949,5.5-5.7,5.5-5.7s3.538,0,3.735-2.752-2.162-22.41-2.162-22.41l-2.162-8.453v-23h.786l.393,19.658,1.769,7.273.2,3.145,2.556,31.452s11.4,3.145,11.991.59-4.325-4.128-4.325-4.128l2.949-5.7V570.875l-.983-2.359-1.769-15.923,2.949-3.145,1.573-1.966V531.756l-1.966-6.094-.59-5.111-3.145-7.863S755.624,507.97,746.385,513.474Z" transform="translate(-534.648 -361.957)" fill="#fff"/>
    <path id="패스_178" data-name="패스 178" d="M773.453,359.929a14.94,14.94,0,1,1-26.931-8.911l0,0a14.938,14.938,0,0,1,26.927,8.915Z" transform="translate(-536.161 -252.838)" fill="#a8abbb"/>
    <g id="그룹_29" data-name="그룹 29" transform="translate(209.972 92.938)" opacity="0.1">
      <path id="패스_179" data-name="패스 179" d="M776.255,355.253l-1.219,6.98c-9.159-23.774-23.727-9.17-23.979-8.915a14.94,14.94,0,0,1,25.2,1.934Z" transform="translate(-751.058 -347.294)"/>
    </g>
    <path id="패스_180" data-name="패스 180" d="M777.405,352.953l-1.219,6.98c-9.158-23.774-23.727-9.17-23.978-8.915a14.94,14.94,0,0,1,25.2,1.934Z" transform="translate(-541.843 -252.842)" fill="#fff"/>
    <path id="패스_181" data-name="패스 181" d="M770.432,359.509l2.048,7.109s-4.251,12.742-23.965,13.186l-.646,1.82-2.162.59-.983,4.128,2.752,26.145s-1.18,2.556.786,2.359c0,0,12.974-4.325,24.179-.393,0,0,2.359.983,1.769-1.18,0,0,7.863-4.914,7.273-10.025s.59-28.9.59-28.9,1.179-6.88-2.359-8.453C779.714,365.9,774.517,358.624,770.432,359.509Z" transform="translate(-536.918 -262.345)" fill="#fff"/>
    <path id="패스_182" data-name="패스 182" d="M789.015,504.918s-12.316,1.237-8.907,8.067,9.48-5.762,9.48-5.762Z" transform="translate(-559.81 -358.082)" fill="#e6e6e6"/>
    <path id="패스_183" data-name="패스 183" d="M810.271,414.861a8.348,8.348,0,0,0-1.376,6.684c.786,4.128,3.735,13.367,3.735,13.367l-10.419,9.632,3.145,4.325,14.154-7.273,3.145-1.966h0A81.554,81.554,0,0,0,816.88,416.5l-.514-1.246S812.631,413.682,810.271,414.861Z" transform="translate(-574.748 -298.531)" fill="#e6e6e6"/>
    <circle id="타원_25" data-name="타원 25" cx="3.637" cy="3.637" r="3.637" transform="translate(230.904 102.078)" fill="#e6e6e6"/>
    <circle id="타원_26" data-name="타원 26" cx="2.654" cy="2.654" r="2.654" transform="translate(229.331 76.13)" fill="#e6e6e6"/>
    <path id="패스_184" data-name="패스 184" d="M478.368,351.123h-.623V350.5h-.122v.623H477v.122h.623v.623h.122v-.623h.623Z" transform="translate(-313.894 -230.649)" fill="#f2f2f2"/>
    <path id="패스_185" data-name="패스 185" d="M642.368,295.123h-.623V294.5h-.122v.623H641v.122h.623v.623h.122v-.623h.623Z" transform="translate(-421.816 -193.798)" fill="#f2f2f2"/>
    <path id="패스_186" data-name="패스 186" d="M624.368,312.123h-.623V311.5h-.122v.623H623v.122h.623v.623h.122v-.623h.623Z" transform="translate(-409.971 -204.985)" fill="#f2f2f2"/>
    <circle id="타원_27" data-name="타원 27" cx="1.444" cy="1.444" r="1.444" transform="translate(188.851 89.787)" fill="#f2f2f2"/>
    <path id="패스_187" data-name="패스 187" d="M392.828,176.439c0,95.417-12,95.417-26.794,95.417-7.65,0-14.551,0-19.431-13.18a82.317,82.317,0,0,1-3.682-14.96c-2.34-14.134-3.682-35.373-3.682-67.276a183.351,183.351,0,0,1,3.682-35.528c1.072-5.408,2.324-10.628,3.682-15.606,1.661-6.1,3.481-11.826,5.318-17.071,1.231-3.526,2.475-6.836,3.682-9.891A212.588,212.588,0,0,1,366.033,75.5S392.828,123.742,392.828,176.439Z" transform="translate(-270.085 -75.5)" fill="#f2f2f2"/>
    <g id="그룹_30" data-name="그룹 30" transform="translate(81.835 22.843)" opacity="0.1">
      <path id="패스_188" data-name="패스 188" d="M380.007,142.3V308.657h-3.682V152.194C377.556,148.668,378.8,145.359,380.007,142.3Z" transform="translate(-376.325 -142.303)"/>
    </g>
    <circle id="타원_28" data-name="타원 28" cx="14.727" cy="14.727" r="14.727" transform="translate(80.403 51.134)" fill="#3f3d56"/>
    <path id="패스_189" data-name="패스 189" d="M384.348,602.95c-3.274-8.06-7.479-9.451-10.227-9.33v-1.306H331.169v1.306c-2.748-.121-6.952,1.27-10.227,9.33-5.318,13.091,3.272,35.59,3.272,35.59s-4.591-31.379,10.654-31.585a18.041,18.041,0,0,0,4.783,4.339v8.439h24.62v-7.671a18.021,18.021,0,0,0,6.15-5.108c15.245.207,10.654,31.585,10.654,31.585S389.666,616.041,384.348,602.95Z" transform="translate(-256.901 -415.594)" fill="#a8abbb"/>
    <circle id="타원_29" data-name="타원 29" cx="11.454" cy="11.454" r="11.454" transform="translate(83.676 54.407)" fill="#a8abbb"/>
    <path id="패스_190" data-name="패스 190" d="M981.694,276.46h-.684a28.068,28.068,0,0,0,28.036,27.882v-.684A27.382,27.382,0,0,1,981.694,276.46Z" transform="translate(-692.408 -207.743)" fill="#a8abbb"/>
    <path id="패스_191" data-name="패스 191" d="M944.694,276.46h-.684A40.73,40.73,0,0,0,984.7,316.994v-.684A40.049,40.049,0,0,1,944.694,276.46Z" transform="translate(-668.06 -207.743)" fill="#a8abbb"/>
    <path id="패스_192" data-name="패스 192" d="M906.684,276.46H906a53.745,53.745,0,0,0,53.685,53.527V329.3A53.06,53.06,0,0,1,906.684,276.46Z" transform="translate(-643.047 -207.743)" fill="#a8abbb"/>
  </g>
</svg>
