<svg xmlns="http://www.w3.org/2000/svg" xmlns:xlink="http://www.w3.org/1999/xlink" viewBox="0 0 1224.04 1151.83"><defs><style>.cls-1{fill:url(#radial-gradient);}.cls-2{fill:url(#radial-gradient-2);}.cls-3{fill:url(#radial-gradient-3);}</style><radialGradient id="radial-gradient" cx="891.12" cy="251.84" r="277.43" gradientUnits="userSpaceOnUse"><stop offset="0" stop-color="#fff"/><stop offset="0.25" stop-color="#fffefc"/><stop offset="0.44" stop-color="#fefbf2"/><stop offset="0.61" stop-color="#fcf6e2"/><stop offset="0.77" stop-color="#faefcb"/><stop offset="0.92" stop-color="#f8e7ad"/><stop offset="1" stop-color="#f6e19a"/></radialGradient><radialGradient id="radial-gradient-2" cx="425.66" cy="178.39" r="208.98" gradientUnits="userSpaceOnUse"><stop offset="0" stop-color="#fff"/><stop offset="0.27" stop-color="#fffdfc"/><stop offset="0.48" stop-color="#fff6f2"/><stop offset="0.66" stop-color="#ffeae2"/><stop offset="0.83" stop-color="#ffdacb"/><stop offset="1" stop-color="#ffc4ad"/><stop offset="1" stop-color="#ffc4ad"/></radialGradient><radialGradient id="radial-gradient-3" cx="513.04" cy="489.26" r="791.61" gradientUnits="userSpaceOnUse"><stop offset="0" stop-color="#fff"/><stop offset="0.22" stop-color="#fcfefe"/><stop offset="0.39" stop-color="#f2fdfc"/><stop offset="0.54" stop-color="#e2faf8"/><stop offset="0.68" stop-color="#cbf6f3"/><stop offset="0.82" stop-color="#adf0ec"/><stop offset="0.95" stop-color="#89eae4"/><stop offset="1" stop-color="#77e7e0"/></radialGradient></defs><g id="Layer_2" data-name="Layer 2"><g id="Layer_1-2" data-name="Layer 1"><path class="cls-1" d="M937.06,416.65c-21.67-9.55-32.81-24-91.89-10.21S703.35,442.78,662.29,441c-47.42-2.09-113.12-18.72-103.07-101.84,13.4-110.75,87.56-176.22,154.32-218.36,45.78-28.88,82.26-41.86,122.05-41.91s107.73-6,138.41-15.39,108.51-41.77,152.6,6.89c46.18,51,217.76,298.28-46.46,380.66C995.41,477.47,978.13,434.75,937.06,416.65Z"/><path class="cls-2" d="M537.27,37.21C560.7,17.45,587.32,5.94,608.33,1.76c21.27-4.15,36.92-1,44.24,9.55s5.93,27.08.8,46.14a212.05,212.05,0,0,1-27.6,60.12c-24.95,38.84-68.79,55.72-105.53,35.07C483.6,132.2,488.5,76.76,537.27,37.21Z"/><path class="cls-3" d="M787.17,480.07C712.94,474,482.94,449,343.37,384.12,84.59,263.79,28.44,531,11.89,674.61-7.27,841-34,1008.23,206.07,1108.07s492.2,6.5,610.89-58.67S990.45,866.13,1015.9,812.87C1038.27,766.05,1046.63,501.38,787.17,480.07Z"/></g></g></svg>