<svg xmlns="http://www.w3.org/2000/svg" xmlns:xlink="http://www.w3.org/1999/xlink" viewBox="0 0 543.76 862.56"><defs><style>.cls-1{fill:none;}.cls-2{clip-path:url(#clip-path);}.cls-3{fill:#948c47;}.cls-4{fill:#6e3a2e;}.cls-5{fill:#e2c59c;}.cls-6{fill:#e6b09c;}.cls-7{fill:#e45471;}.cls-8{fill:#ffc4ad;}.cls-9{fill:#462c25;}.cls-10{fill:#f5e1c1;}.cls-11{fill:#73507a;}.cls-12{fill:#e2a4a7;}.cls-13{fill:#1d5578;}.cls-14{fill:#c6b739;}</style><clipPath id="clip-path" transform="translate(-75.12 -40.68)"><rect class="cls-1" width="717.55" height="817.91"/></clipPath></defs><g id="Layer_2" data-name="Layer 2"><g id="Layer_1-2" data-name="Layer 1"><g class="cls-2"><path class="cls-3" d="M209.07,372.86s-38.95,19.29-85.44,60.55S51.54,509.8,105.19,636.48,169.09,881.63,168.8,885s200.83,18.25,200.83,18.25S472.05,471,469.26,464s-87.07-66.22-160.38-81.51S209.07,372.86,209.07,372.86Z" transform="translate(-75.12 -40.68)"/><path class="cls-4" d="M209.35,130.93s50.15-4.77,62.16-26.36-32.16-7.26-9.26,2.6S326.38,84.37,310,63.76s-37.27-26.92-53.39-10.2.42,21.51,5,7.21-29.3-40.94-44.83,8.61-2.06,50.71.62,19.27S197.73,41.75,190,79.53s17.12,51.2,19.68,34.47S160.06,72.46,162,103.15s5.57,67.18,28.5,63.48S145.8,93.85,136.6,162s29.29,40.94,28.29,26.15S90.28,214.62,155,224.66s37.16-11.53,39.62-27.15-46.93,33.31-10.68,59,64.34,14.53,52.33-17-43.39-8.22-27.45,16.89,1.88,44.25-4.11,48.26,46.18,15.24,50.82-12.63S249.85,133.25,209.35,130.93Z" transform="translate(-75.12 -40.68)"/><path class="cls-5" d="M279.21,93.92l34.65,31.22,2.22,13.76,30.35,28.59L339,188.34l15.51,56.72s9.86,30.24-21.28,24.19l-31.14-6.05S301,368.26,320.48,379l19.44,10.7-50.35,60.15L185.38,385.54s4.82-1.42,10.44-7.11c6.08-6.15,13.07-17.28,15.93-37,5.5-38,21.41-92,21.41-92s-4.78,3-12.54,1.2-44.58-20.77-36.41-37,32.86-14.15,43.13-2,21.9-4.92,13.07-33.94-71.19-35.63-5.32-57C279.28,106.36,279.21,93.92,279.21,93.92Z" transform="translate(-75.12 -40.68)"/><path class="cls-6" d="M498.34,384.23C470.72,389,372,515.85,346.5,550.05s-47.83,77.68-9.46,66.53,68-45.8,91.37-70.17,54-59.14,72-75.93S526,379.5,498.34,384.23Z" transform="translate(-75.12 -40.68)"/><path class="cls-7" d="M550.13,582s-42.51,50.89-37.67,88.44S586.37,764.44,582.91,794s-206.76,88.71-194.19,11.21c15.61-96.32,2.89-170.09-1-200.49s-28.7-25.37-11.17-58.52,38.94-50.45,33.69-77S598.23,299.42,550.13,582Z" transform="translate(-75.12 -40.68)"/><path class="cls-8" d="M536.05,402.06s-15-3.53-34.13-39.23-28.81-54.43-27.32-71-77.72,17.28-66.89,45,8,33.5,29.28,58-.53,38.72,14,38.23C452.72,433,539.38,413.73,536.05,402.06Z" transform="translate(-75.12 -40.68)"/><path class="cls-8" d="M415.58,281a88.5,88.5,0,0,0,44.1,8.43c-22.28,66.9-86.6,65.92-88.77,65.77s-4.61-.34-7.14-3.76-3.57-7.3-3.26-9.29,2-4.17,1.33-4.45-5.18-2.15-6.31-2.62-1.89-3.68-1.89-3.68,2.8-3.59,2.58-3.69c-5.85-2.42-6.8-5.2-7.25-6.7s1.34-4.05,2.86-6.19c1.28-1.86.39-6.72-.49-8.4s-6.68-3.55-7.88-5.11-2.52-4.74-1.92-5.54,3-3.05,7.66-7.46,10.05-14.82,7.56-31.68,1.68-16.56,3.84-24.64C366.1,211.34,383,265.65,415.58,281Z" transform="translate(-75.12 -40.68)"/><path class="cls-9" d="M345.88,210c.5-8.56,71.8-51.46,120.85-35.75s80.41,58.84,84.57,110.41,7.83,135.13,41.39,170.24,33.76,89.74,7,113.66-108.45,40.89-91.15-2,57-150.67-1.84-145.06-59.29-9.88-74-62.78-14.23-56.4-44.15-73.25S344.82,227.7,345.88,210Z" transform="translate(-75.12 -40.68)"/><path class="cls-10" d="M417.1,642.16s49.14-3.34,52.32,8.42-2.82,103.86-2.82,103.86l-15.48,11.25s-24-63.7-18.79-82.25l-35,.22S411.27,642,417.1,642.16Z" transform="translate(-75.12 -40.68)"/><path class="cls-11" d="M348.38,635.62l75.6,1.47s-5.52,34.75-4.73,48.78c.4,7-23.93,8.31-53.48,12.07s-82.79.14-91.21-12.35c-30.35-45-24.1-57.87,4.12-59.15S348.38,635.62,348.38,635.62Z" transform="translate(-75.12 -40.68)"/><path class="cls-12" d="M444.28,759.67s.56,22.21,1.63,25.74,43-33.87,51.35-41.82,2.62-10.44-6.78-8.36-22.17-.6-22.05-5.26-4.95,10.37-4.95,10.37S476.25,743,444.28,759.67Z" transform="translate(-75.12 -40.68)"/><path class="cls-10" d="M383.71,366.84s-7.1,46.51,1.06,46.73-1.48,11.64-2.74,15.1-26.56,32-31.35,36.53-40.81-2.28-40.81-2.28l-2,30.31-24.79,9.83,4.23-69.95s-7.34-73.76,32.49-78.52S383.71,366.84,383.71,366.84Z" transform="translate(-75.12 -40.68)"/><path class="cls-9" d="M340.16,336.45s31.25,10.2,43,8.18,31.09,16,.12,38.54-47.21,18.57-47.21,18.57,15.61-15.93,10.16-30.09S331.57,351.4,340.16,336.45Z" transform="translate(-75.12 -40.68)"/><path class="cls-9" d="M344.51,348.25s-1.7-23.4-56.8-15.55-74.44,75.05-38.93,100.53,41.44,22.15,47.62,9.47L302.58,430s-9.93-21.28-.5-24.53,11.58,3.81,11.58,3.81l5.7,4.83S333,386.47,334.22,383s11.9-7.85,16.84-18.22S344.51,348.25,344.51,348.25Z" transform="translate(-75.12 -40.68)"/><path class="cls-9" d="M243.33,419.07S240.57,438,216,438.18c-32.7.28-46.11,20.94-45.68,47.81,0,0,19.25-20.5,49.68-23.17C244.48,460.66,244.14,431.94,243.33,419.07Z" transform="translate(-75.12 -40.68)"/><path class="cls-9" d="M271.93,440.87s-2.87,19.78-14.51,18.29-35.27,8.39-41.67,29.23a178.16,178.16,0,0,0-7,41.85s12.33-24.19,38.13-28.16C293.87,494.85,279.77,452.76,271.93,440.87Z" transform="translate(-75.12 -40.68)"/><path class="cls-13" d="M309,666.08s-41.82-8.14-55.51-20.19,17.29-140.46,19.81-147.4,29-15.92,51.11-13,19.81,1.71,32.39,11.39A134.41,134.41,0,0,0,375.76,509c3.2,1.68,5.18,2.54,5.18,2.54L370.6,548.65l-23.09-10,10.33,92.53S390.36,681.14,309,666.08Z" transform="translate(-75.12 -40.68)"/><path class="cls-6" d="M340.28,621.88s-9.29,63.4-17.95,65c-38.33,7.22-33.1-5.69-38.75-14.3C282.36,670.76,301.57,668.8,340.28,621.88Z" transform="translate(-75.12 -40.68)"/><path class="cls-8" d="M522.85,425.75c-28,1.68-142.2,142.41-171.84,180.52s-57.4,88.06-17.9,80.14,73.27-46,99.61-72.34,61.15-64.4,81.12-82.31S550.85,424.07,522.85,425.75Z" transform="translate(-75.12 -40.68)"/><path class="cls-5" d="M224.27,592.37s82.85,107.77,99.57,131.72c5.05,7.22-23.1,45.52-35.15,41.1s-138.84-95.5-152.23-137.35S224.27,592.37,224.27,592.37Z" transform="translate(-75.12 -40.68)"/><path class="cls-14" d="M98.12,467.42s76.43,5.39,109.23,71.49L240.16,605s-73.07,48-85.51,48.11S32,500.23,98.12,467.42Z" transform="translate(-75.12 -40.68)"/><path class="cls-5" d="M293.18,765.57,510,689.09s9.26-2.61,18.18-14.28S548.36,637,548.36,637L542,605.88s-6.19,6.26-5.55,12S524,631.48,519.08,635.59s-14.05,5.58-7.86-.67,17.53-20,15.77-25.79-18.09,13.16-18.09,13.16-22.76,15-27.73,20.24-21.49,40-21.78,43.37-162.5-3.68-170.65-1S283.08,764.71,293.18,765.57Z" transform="translate(-75.12 -40.68)"/><path class="cls-10" d="M379.69,515.12a61.64,61.64,0,0,1,17.53-.78c16.3,1.61,38.57-1.29,48-4.54s17.85-12.36,17.85-12.36a14.81,14.81,0,0,1-1.42,9.3c-2.46,4.6,15,5.08,15,5.08s10.37,4.95,4.47,7.13-16.55,7.72-16.55,7.72,1,4.7,5.71,4.83-4.76,3.37-10.59,3.22-11.58-3.82-21-1.74-49.35,11.5-49.35,11.5-10.21-.19-16.9-5.22C372.5,539.26,373.1,516.36,379.69,515.12Z" transform="translate(-75.12 -40.68)"/></g></g></g></svg>