<svg xmlns="http://www.w3.org/2000/svg" xmlns:xlink="http://www.w3.org/1999/xlink" viewBox="0 0 831 677.39"><defs><style>.cls-1{fill:none;}.cls-2{fill:#dab6ef;opacity:0.45;}.cls-3{clip-path:url(#clip-path);}.cls-4{clip-path:url(#clip-path-2);}.cls-5{fill:#948c47;}.cls-6{fill:#6e3a2e;}.cls-7{fill:#e2c59c;}.cls-8{fill:#e6b09c;}.cls-9{fill:#e45471;}.cls-10{fill:#ffc4ad;}.cls-11{fill:#462c25;}.cls-12{fill:#f5e1c1;}.cls-13{fill:#73507a;}.cls-14{fill:#e2a4a7;}.cls-15{fill:#1d5578;}.cls-16{fill:#c6b739;}.cls-17{fill:#b7edbb;}.cls-17,.cls-18{opacity:0.5;}.cls-18{fill:#e8e89a;}</style><clipPath id="clip-path"><circle class="cls-1" cx="390.5" cy="313.5" r="313.5"/></clipPath><clipPath id="clip-path-2"><rect class="cls-1" x="128.9" y="13.3" width="541.12" height="616.8"/></clipPath></defs><g id="Layer_2" data-name="Layer 2"><g id="Layer_1-2" data-name="Layer 1"><circle class="cls-2" cx="390.5" cy="313.5" r="313.5"/><g class="cls-3"><g class="cls-4"><path class="cls-5" d="M284.67,277.42S255.3,292,220.25,323.08s-54.37,57.61-13.91,153.14,48.19,184.87,48,187.41,151.45,13.76,151.45,13.76S483,351.45,480.89,346.16s-65.66-49.94-120.95-61.47S284.67,277.42,284.67,277.42Z"/><path class="cls-6" d="M284.88,95s37.82-3.6,46.88-19.87-24.25-5.48-7,2,48.36-17.19,36-32.74S332.71,24,320.55,36.63s.32,16.22,3.8,5.43-22.09-30.87-33.81,6.5S289,86.8,291,63.09s-14.89-35.37-20.73-6.88,12.91,38.62,14.84,26-37.41-31.32-36-8.18,4.21,50.66,21.5,47.88S237,67,230,118.43s22.09,30.88,21.34,19.73-56.27,19.93-7.46,27.5,28-8.7,29.88-20.47-35.39,25.11-8.06,44.5,48.52,11,39.46-12.84-32.72-6.2-20.69,12.73S285.9,223,281.38,226s34.83,11.49,38.33-9.52S315.43,96.72,284.88,95Z"/><path class="cls-7" d="M337.57,67.06,363.7,90.61,365.37,101l22.89,21.56-5.61,15.73L394.36,181s7.43,22.8-16.06,18.25l-23.48-4.57S354,274,368.69,282l14.66,8.07-38,45.37L266.81,287s3.64-1.07,7.88-5.36c4.58-4.64,9.85-13,12-27.9,4.15-28.64,16.15-69.39,16.15-69.39s-3.6,2.24-9.45.89-33.62-15.65-27.46-27.92,24.78-10.67,32.52-1.49,16.52-3.7,9.86-25.59-53.69-26.87-4-43C337.62,76.45,337.57,67.06,337.57,67.06Z"/><path class="cls-8" d="M502.82,286c-20.83,3.57-95.3,99.25-114.51,125s-36.06,58.58-7.13,50.17,51.26-34.53,68.91-52.91,40.73-44.6,54.28-57.26S523.64,282.42,502.82,286Z"/><path class="cls-9" d="M541.88,435.09s-32.06,38.39-28.41,66.7S569.2,572.72,566.59,595s-155.92,66.9-146.44,8.45c11.77-72.63,2.19-128.27-.76-151.19S397.74,433.1,411,408.11s29.37-38.05,25.41-58.09S578.14,222,541.88,435.09Z"/><path class="cls-10" d="M531.26,299.44s-11.31-2.66-25.74-29.58-21.73-41.06-20.6-53.53-58.62,13-50.44,33.9,6,25.27,22.08,43.75-.4,29.19,10.54,28.83C468.42,322.77,533.77,308.24,531.26,299.44Z"/><path class="cls-10" d="M440.41,208.17a66.8,66.8,0,0,0,33.25,6.37c-16.79,50.45-65.3,49.7-66.94,49.59a6.18,6.18,0,0,1-5.38-2.83c-1.91-2.6-2.69-5.51-2.46-7s1.5-3.14,1-3.36-3.91-1.62-4.76-2-1.42-2.78-1.42-2.78a20.72,20.72,0,0,0,1.94-2.78c-4.41-1.82-5.13-3.92-5.46-5.05s1-3.06,2.15-4.67c1-1.4.3-5.07-.36-6.33s-5.05-2.68-6-3.86-1.9-3.57-1.45-4.18,2.28-2.3,5.78-5.62,7.57-11.18,5.7-23.89,1.27-12.49,2.9-18.58C403.1,155.61,415.86,196.57,440.41,208.17Z"/><path class="cls-11" d="M387.85,154.62c.38-6.45,54.14-38.81,91.13-27s60.64,44.37,63.78,83.26,5.9,101.9,31.21,128.38S599.43,407,579.24,425s-81.78,30.84-68.74-1.53,43-113.62-1.38-109.39-44.72-7.45-55.79-47.34S442.6,224.21,420,211.51,387.05,168,387.85,154.62Z"/><path class="cls-12" d="M441.55,480.5S478.61,478,481,486.85s-2.13,78.32-2.13,78.32l-11.67,8.49s-18.07-48-14.17-62l-26.42.16S437.16,480.38,441.55,480.5Z"/><path class="cls-13" d="M389.73,475.57l57,1.11s-4.16,26.2-3.57,36.79c.31,5.29-18,6.26-40.33,9.1s-62.43.11-68.78-9.31c-22.89-34-18.17-43.65,3.11-44.61S389.73,475.57,389.73,475.57Z"/><path class="cls-14" d="M462.05,569.12s.42,16.74,1.23,19.41S495.68,563,502,557s2-7.87-5.11-6.3-16.71-.45-16.63-4-3.73,7.82-3.73,7.82S486.16,556.56,462.05,569.12Z"/><path class="cls-12" d="M416.37,272.88s-5.35,35.07.8,35.24-1.12,8.78-2.06,11.39-20,24.12-23.65,27.54-30.77-1.72-30.77-1.72l-1.5,22.86-18.7,7.42,3.19-52.76s-5.53-55.62,24.5-59.21S416.37,272.88,416.37,272.88Z"/><path class="cls-11" d="M383.53,250s23.57,7.69,32.42,6.17,23.44,12.08.09,29.06-35.61,14-35.61,14,11.78-12,7.67-22.69S377.06,261.24,383.53,250Z"/><path class="cls-11" d="M386.81,258.86s-1.28-17.65-42.83-11.73-56.14,56.6-29.36,75.82,31.25,16.7,35.91,7.14l4.67-9.56s-7.5-16.06-.38-18.5,8.72,2.87,8.72,2.87l4.31,3.64s10.25-20.86,11.2-23.47,9-5.92,12.7-13.75S386.81,258.86,386.81,258.86Z"/><path class="cls-11" d="M310.51,312.27s-2.08,14.25-20.65,14.41c-24.66.21-34.77,15.79-34.44,36.05,0,0,14.51-15.46,37.46-17.47C311.38,343.63,311.12,322,310.51,312.27Z"/><path class="cls-11" d="M332.08,328.71s-2.17,14.91-10.95,13.79-26.59,6.32-31.42,22a134.23,134.23,0,0,0-5.26,31.56s9.31-18.24,28.76-21.24C348.63,369.41,338,337.67,332.08,328.71Z"/><path class="cls-15" d="M360.05,498.54s-31.54-6.14-41.86-15.22,13-105.93,14.94-111.16,21.87-12,38.54-9.8,14.94,1.29,24.43,8.59a100.11,100.11,0,0,0,14.28,9.15c2.41,1.27,3.91,1.91,3.91,1.91l-7.81,28-17.4-7.52,7.79,69.78S421.39,509.89,360.05,498.54Z"/><path class="cls-8" d="M383.62,465.21s-7,47.81-13.53,49c-28.91,5.44-25-4.29-29.22-10.78C340,502.07,354.43,500.59,383.62,465.21Z"/><path class="cls-10" d="M521.3,317.3c-21.11,1.27-107.23,107.4-129.58,136.14s-43.29,66.41-13.5,60.43,55.25-34.66,75.12-54.55,46.11-48.57,61.17-62.07S542.42,316,521.3,317.3Z"/><path class="cls-7" d="M296.14,443s62.47,81.27,75.09,99.34c3.8,5.44-17.42,34.33-26.51,31s-104.71-72-114.8-103.57S296.14,443,296.14,443Z"/><path class="cls-16" d="M201,348.73s57.63,4.06,82.37,53.91l24.74,49.86s-55.1,36.23-64.48,36.28S151.15,373.47,201,348.73Z"/><path class="cls-7" d="M348.1,573.57l163.51-57.68s7-2,13.71-10.77,15.22-28.54,15.22-28.54l-4.82-23.43s-4.67,4.71-4.19,9-9.4,10.28-13.07,13.38-10.59,4.21-5.93-.51,13.22-15.07,11.89-19.45-13.64,9.92-13.64,9.92-17.16,11.33-20.91,15.27S473.66,511,473.44,513.49s-122.54-2.77-128.68-.74S340.49,572.92,348.1,573.57Z"/><path class="cls-12" d="M413.34,384.7a46.61,46.61,0,0,1,13.22-.59c12.3,1.21,29.09-1,36.2-3.42s13.46-9.33,13.46-9.33a11.15,11.15,0,0,1-1.07,7c-1.86,3.47,11.35,3.83,11.35,3.83s7.82,3.73,3.37,5.38-12.49,5.82-12.49,5.82.79,3.55,4.31,3.64-3.59,2.55-8,2.43-8.73-2.88-15.82-1.31-37.22,8.67-37.22,8.67-7.7-.15-12.74-3.93C407.92,402.91,408.38,385.64,413.34,384.7Z"/></g></g><circle class="cls-17" cx="759.5" cy="557" r="71.5"/><circle class="cls-18" cx="43.5" cy="50" r="43.5"/></g></g></svg>