<svg xmlns="http://www.w3.org/2000/svg" viewBox="0 0 831 465.13"><defs><style>.cls-1,.cls-2{fill:none;stroke:#bfbfbf;stroke-miterlimit:10;stroke-width:5px;}.cls-2{stroke-dasharray:12.05 12.05;}.cls-3{fill:#f8d064;}</style></defs><g id="Layer_2" data-name="Layer 2"><g id="Layer_2-2" data-name="Layer 2"><path class="cls-1" d="M1.77,344.8Q3.9,346.93,6,349"/><path class="cls-2" d="M14.79,357.31C142.12,474.9,308.24,491.45,400,419.8c100-78.11,115.35-264,62.5-310.71C459.91,106.82,436,85.66,417.84,93c-19.49,7.9-21.16,44.14-21.43,50-3.26,70.88,94.1,180.37,207.14,182.14,96.78,1.52,192-76.11,222.2-191.87"/><path class="cls-1" d="M827.21,127.44q.7-2.91,1.34-5.85"/><path id="Transport" class="cls-3" d="M163.46,354.41h-.34c-32.93-.06-28.21,35-28.21,35,3,22.53,24.41,47.49,28.21,51.77v.38l.17-.19.17.19v-.38c3.79-4.28,25.17-29.24,28.21-51.77C191.67,389.46,196.38,354.35,163.46,354.41Zm-.17,45.2a15.4,15.4,0,1,1,15.23-15.4A15.4,15.4,0,0,1,163.29,399.61Z"/><path id="Transport-2" data-name="Transport" class="cls-3" d="M430.88,0h-.34c-32.92-.06-28.2,35.05-28.2,35.05,3,22.52,24.41,47.48,28.2,51.76v.38a1.62,1.62,0,0,0,.17-.19l.17.19v-.38c3.8-4.28,25.18-29.24,28.21-51.76C459.09,35.06,463.81,0,430.88,0Zm-.17,45.2A15.4,15.4,0,1,1,446,29.81,15.4,15.4,0,0,1,430.71,45.21Z"/><path id="Transport-3" data-name="Transport" class="cls-3" d="M673.65,220.7h-.34c-32.93-.06-28.21,35.05-28.21,35.05,3,22.52,24.41,47.49,28.21,51.76v.38l.17-.19a1.62,1.62,0,0,0,.17.19v-.38c3.79-4.27,25.17-29.24,28.2-51.76C701.85,255.75,706.57,220.64,673.65,220.7Zm-.17,45.2a15.4,15.4,0,1,1,15.23-15.4A15.41,15.41,0,0,1,673.48,265.9Z"/></g></g></svg>